<svg width="75" height="24" viewBox="0 0 75 24" fill="none" xmlns="http://www.w3.org/2000/svg">
<path d="M62.8061 6.53882L67.3746 17.325L67.4553 17.5154L67.3779 17.7072L66.8739 18.9552L66.8721 18.9597C66.6185 19.5706 66.3765 20.141 65.9514 20.5271C65.4915 20.9449 64.8931 21.092 64.0823 21.092C63.7217 21.092 63.3673 21.0389 63.0326 20.9553L62.816 22.5146C63.3583 22.6275 63.9121 22.684 64.4662 22.684C65.8168 22.684 66.5885 22.3559 67.1385 21.8207C67.7196 21.2552 68.1127 20.4077 68.5844 19.2105L62.8061 6.53882ZM62.8061 6.53882V6.404H64.8245L67.9144 14.0827L68.0405 14.396H68.3783H68.4262H68.7775L68.8966 14.0655L71.6575 6.404H73.5748L68.585 19.2087L62.8061 6.53882ZM13.484 10.224V9.724H12.984H10.004V7.988H15.508V15.8719C13.414 16.9275 11.2134 17.356 9 17.356C6.47577 17.356 4.35617 16.4973 2.86983 15.0418C1.38446 13.5872 0.5 11.5061 0.5 9C0.5 6.44042 1.37018 4.32293 2.84655 2.84655C4.32293 1.37018 6.44042 0.5 9 0.5C11.1191 0.5 13.3002 0.92114 14.9338 2.17122L13.4151 3.70621C12.1785 2.71558 10.5267 2.236 9 2.236C5.21237 2.236 2.668 5.18043 2.668 8.808C2.668 10.6628 3.25274 12.3644 4.35343 13.6092C5.45993 14.8606 7.06224 15.62 9.024 15.62C10.3394 15.62 11.924 15.3987 13.2283 14.6683L13.484 14.5251V14.232V10.224ZM21.2557 8.228H21.5724L21.7077 7.94169C22.246 6.80305 23.3377 6.116 24.6637 6.116C24.8837 6.116 25.0259 6.13598 25.1957 6.17458V7.94054C24.8894 7.88285 24.6036 7.852 24.3037 7.852C23.0844 7.852 22.1662 8.28622 21.5594 8.98386C20.9628 9.6698 20.7077 10.5631 20.7077 11.424V16.924H18.8277V6.404H20.7077V7.728V8.228H21.2077H21.2557ZM28.176 8.30108L27.3521 7.4772C28.2882 6.69087 29.6551 6.116 31.5278 6.116C33.4031 6.116 34.4665 6.63883 35.0787 7.37794C35.7068 8.13622 35.9478 9.22456 35.9478 10.536V16.924H34.3558V15.84V15.34H33.8558H33.7838H33.5078L33.3607 15.5736C32.6564 16.6921 31.4937 17.212 30.0878 17.212C28.9898 17.212 28.0563 16.9012 27.4084 16.385C26.7696 15.876 26.3878 15.1537 26.3878 14.256C26.3878 13.6576 26.5073 13.161 26.7361 12.7483C26.9641 12.337 27.3161 11.9809 27.8249 11.6854C28.8608 11.0838 30.5224 10.748 32.9678 10.748H33.8558H34.3558V10.248V9.912C34.3558 9.0955 34.0283 8.41391 33.4403 7.94808C32.8656 7.49282 32.085 7.276 31.2158 7.276C30.0593 7.276 29.0062 7.6766 28.176 8.30108ZM34.1878 12.264V11.764H33.6878H32.8478C31.5536 11.764 30.4553 11.9024 29.6623 12.2311C29.2618 12.3972 28.9125 12.6226 28.6611 12.9289C28.4029 13.2435 28.2678 13.62 28.2678 14.04C28.2678 14.7198 28.6093 15.2436 29.1017 15.5785C29.5794 15.9033 30.1945 16.052 30.8078 16.052C31.8843 16.052 32.7426 15.7485 33.3336 15.1762C33.9253 14.6032 34.1878 13.82 34.1878 12.984V12.264ZM43.7172 14.1472L46.6901 6.404H48.5642L44.4219 16.924H42.0263L37.7307 6.404H39.7859L42.7352 14.146L42.8579 14.468H43.2024H43.2504H43.5941L43.7172 14.1472ZM56.2581 7.852H54.3821V6.404H56.2581H56.7581V5.904V3.068H58.6381V5.904V6.404H59.1381H61.663L61.8061 6.74186V7.852H59.1381H58.6381V8.352V13.464C58.6381 14.1255 58.765 14.7223 59.1435 15.1531C59.5347 15.5982 60.1021 15.764 60.7461 15.764C61.1354 15.764 61.4986 15.7197 61.8061 15.6462V16.9816C61.6171 17.0372 61.3842 17.0861 61.128 17.1245C60.7312 17.184 60.324 17.212 60.0261 17.212C58.7158 17.212 57.9461 16.9533 57.4855 16.4744C57.0197 15.9901 56.7581 15.1655 56.7581 13.752V8.352V7.852H56.2581ZM50.1317 1.992C50.1317 1.3496 50.6821 0.763999 51.4557 0.763999C52.2759 0.763999 52.8278 1.32275 52.8278 1.992C52.8278 2.69655 52.2659 3.22 51.4557 3.22C50.6821 3.22 50.1317 2.6344 50.1317 1.992ZM52.4198 16.924H50.5397V6.404H52.4198V16.924Z" fill="#F2F2F2" stroke="#F2F2F2"/>
</svg>
