<svg width="37" height="26" viewBox="0 0 37 26" fill="none" xmlns="http://www.w3.org/2000/svg">
<path fill-rule="evenodd" clip-rule="evenodd" d="M18.8751 12.6027H12.1479C12.1479 13.3023 12.1479 14.7015 12.1436 15.4011H16.0418C15.8925 16.1007 15.3628 17.0802 14.6145 17.5734C14.6138 17.5727 14.6131 17.5776 14.6116 17.5769C13.6167 18.2338 12.3037 18.3829 11.3288 18.187C9.80069 17.8833 8.59134 16.7752 8.10032 15.3675C8.10317 15.3654 8.10532 15.3459 8.10746 15.3445C7.80012 14.4714 7.80012 13.3023 8.10746 12.6027H8.10675C8.50272 11.3168 9.74851 10.1436 11.2788 9.82247C12.5096 9.56152 13.8983 9.84416 14.9197 10.7998C15.0555 10.6669 16.7995 8.96405 16.9303 8.82553C13.4409 5.66541 7.85373 6.77708 5.7631 10.8579H5.76239C5.76239 10.8579 5.7631 10.8579 5.75882 10.8656C4.72458 12.87 4.76747 15.2318 5.76596 17.1404C5.7631 17.1425 5.76096 17.1438 5.75882 17.1459C6.66368 18.902 8.31045 20.2487 10.2946 20.7615C12.4024 21.3142 15.0848 20.9364 16.8817 19.3112C16.8824 19.3119 16.8831 19.3126 16.8838 19.3133C18.4062 17.9421 19.354 15.6061 18.8751 12.6027Z" fill="white"/>
</svg>
