<svg width="346" height="18" viewBox="0 0 346 18" fill="none" xmlns="http://www.w3.org/2000/svg">
<rect x="31" y="10" width="278" height="2" fill="#D7D4D4"/>
<rect x="31" y="10" width="94" height="2" fill="#1434E1"/>
<path d="M328.022 4.778C329.354 4.778 330.356 5.312 331.028 6.38C331.712 7.436 332.054 8.972 332.054 10.988C332.054 13.004 331.712 14.546 331.028 15.614C330.356 16.682 329.354 17.216 328.022 17.216C326.69 17.216 325.682 16.682 324.998 15.614C324.326 14.546 323.99 13.004 323.99 10.988C323.99 8.972 324.326 7.436 324.998 6.38C325.682 5.312 326.69 4.778 328.022 4.778ZM328.022 6.092C327.242 6.092 326.66 6.476 326.276 7.244C325.904 8.012 325.718 9.26 325.718 10.988C325.718 12.716 325.904 13.97 326.276 14.75C326.66 15.518 327.242 15.902 328.022 15.902C328.79 15.902 329.366 15.518 329.75 14.75C330.134 13.97 330.326 12.716 330.326 10.988C330.326 9.272 330.134 8.03 329.75 7.262C329.366 6.482 328.79 6.092 328.022 6.092ZM336.911 4.778C337.655 4.778 338.291 4.916 338.819 5.192C339.359 5.468 339.767 5.84 340.043 6.308C340.331 6.776 340.475 7.286 340.475 7.838C340.475 8.57 340.259 9.176 339.827 9.656C339.407 10.124 338.843 10.442 338.135 10.61C338.939 10.682 339.593 10.97 340.097 11.474C340.601 11.978 340.853 12.662 340.853 13.526C340.853 14.222 340.685 14.852 340.349 15.416C340.013 15.98 339.533 16.424 338.909 16.748C338.285 17.06 337.565 17.216 336.749 17.216C336.017 17.216 335.345 17.084 334.733 16.82C334.121 16.544 333.587 16.136 333.131 15.596L334.121 14.678C334.517 15.086 334.919 15.386 335.327 15.578C335.747 15.77 336.203 15.866 336.695 15.866C337.451 15.866 338.045 15.656 338.477 15.236C338.909 14.804 339.125 14.228 339.125 13.508C339.125 12.716 338.921 12.158 338.513 11.834C338.105 11.51 337.511 11.348 336.731 11.348H335.831L336.029 10.07H336.641C337.265 10.07 337.781 9.884 338.189 9.512C338.609 9.14 338.819 8.618 338.819 7.946C338.819 7.382 338.639 6.938 338.279 6.614C337.919 6.278 337.433 6.11 336.821 6.11C336.353 6.11 335.921 6.194 335.525 6.362C335.141 6.53 334.745 6.806 334.337 7.19L333.473 6.2C334.493 5.252 335.639 4.778 336.911 4.778Z" fill="white"/>
<path d="M5.022 4.778C6.354 4.778 7.356 5.312 8.028 6.38C8.712 7.436 9.054 8.972 9.054 10.988C9.054 13.004 8.712 14.546 8.028 15.614C7.356 16.682 6.354 17.216 5.022 17.216C3.69 17.216 2.682 16.682 1.998 15.614C1.326 14.546 0.99 13.004 0.99 10.988C0.99 8.972 1.326 7.436 1.998 6.38C2.682 5.312 3.69 4.778 5.022 4.778ZM5.022 6.092C4.242 6.092 3.66 6.476 3.276 7.244C2.904 8.012 2.718 9.26 2.718 10.988C2.718 12.716 2.904 13.97 3.276 14.75C3.66 15.518 4.242 15.902 5.022 15.902C5.79 15.902 6.366 15.518 6.75 14.75C7.134 13.97 7.326 12.716 7.326 10.988C7.326 9.272 7.134 8.03 6.75 7.262C6.366 6.482 5.79 6.092 5.022 6.092ZM15.3941 4.958V17H13.7381V6.722L10.9301 8.432L10.2101 7.262L13.9361 4.958H15.3941Z" fill="white"/>
</svg>
